<svg xmlns="http://www.w3.org/2000/svg" xmlns:xlink="http://www.w3.org/1999/xlink" width="876" zoomAndPan="magnify" viewBox="0 0 657 74.999997" height="100" preserveAspectRatio="xMidYMid meet" version="1.0"><defs><g/></defs><g fill="#ff6464" fill-opacity="1"><g transform="translate(-5.263989, 71.822579)"><g><path d="M 61.765625 -38.0625 L 61.765625 -46.421875 L 70.015625 -46.421875 L 70.015625 -38.0625 Z M 61.765625 -47.609375 L 61.765625 -55.96875 L 70.015625 -55.96875 L 70.015625 -47.609375 Z M 61.765625 -57.140625 L 61.765625 -65.515625 L 70.015625 -65.515625 L 70.015625 -57.140625 Z M 52.328125 -28.625 L 52.328125 -36.984375 L 60.578125 -36.984375 L 60.578125 -28.625 Z M 52.328125 -38.0625 L 52.328125 -46.421875 L 60.578125 -46.421875 L 60.578125 -38.0625 Z M 52.328125 -47.609375 L 52.328125 -55.96875 L 60.578125 -55.96875 L 60.578125 -47.609375 Z M 52.328125 -57.140625 L 52.328125 -65.515625 L 60.578125 -65.515625 L 60.578125 -57.140625 Z M 52.328125 -66.6875 L 52.328125 -75.046875 L 60.578125 -75.046875 L 60.578125 -66.6875 Z M 43 -28.625 L 43 -36.984375 L 51.25 -36.984375 L 51.25 -28.625 Z M 43 -38.0625 L 43 -46.421875 L 51.25 -46.421875 L 51.25 -38.0625 Z M 43 -57.140625 L 43 -65.515625 L 51.25 -65.515625 L 51.25 -57.140625 Z M 43 -66.6875 L 43 -75.046875 L 51.25 -75.046875 L 51.25 -66.6875 Z M 33.5625 -28.625 L 33.5625 -36.984375 L 41.8125 -36.984375 L 41.8125 -28.625 Z M 33.5625 -38.0625 L 33.5625 -46.421875 L 41.8125 -46.421875 L 41.8125 -38.0625 Z M 33.5625 -57.140625 L 33.5625 -65.515625 L 41.8125 -65.515625 L 41.8125 -57.140625 Z M 33.5625 -66.6875 L 33.5625 -75.046875 L 41.8125 -75.046875 L 41.8125 -66.6875 Z M 24.125 0 L 24.125 -8.359375 L 32.375 -8.359375 L 32.375 0 Z M 24.125 -9.546875 L 24.125 -17.90625 L 32.375 -17.90625 L 32.375 -9.546875 Z M 24.125 -19.078125 L 24.125 -27.453125 L 32.375 -27.453125 L 32.375 -19.078125 Z M 24.125 -28.625 L 24.125 -36.984375 L 32.375 -36.984375 L 32.375 -28.625 Z M 24.125 -38.0625 L 24.125 -46.421875 L 32.375 -46.421875 L 32.375 -38.0625 Z M 24.125 -47.609375 L 24.125 -55.96875 L 32.375 -55.96875 L 32.375 -47.609375 Z M 24.125 -57.140625 L 24.125 -65.515625 L 32.375 -65.515625 L 32.375 -57.140625 Z M 24.125 -66.6875 L 24.125 -75.046875 L 32.375 -75.046875 L 32.375 -66.6875 Z M 14.796875 0 L 14.796875 -8.359375 L 23.046875 -8.359375 L 23.046875 0 Z M 14.796875 -9.546875 L 14.796875 -17.90625 L 23.046875 -17.90625 L 23.046875 -9.546875 Z M 14.796875 -19.078125 L 14.796875 -27.453125 L 23.046875 -27.453125 L 23.046875 -19.078125 Z M 14.796875 -28.625 L 14.796875 -36.984375 L 23.046875 -36.984375 L 23.046875 -28.625 Z M 14.796875 -38.0625 L 14.796875 -46.421875 L 23.046875 -46.421875 L 23.046875 -38.0625 Z M 14.796875 -47.609375 L 14.796875 -55.96875 L 23.046875 -55.96875 L 23.046875 -47.609375 Z M 14.796875 -57.140625 L 14.796875 -65.515625 L 23.046875 -65.515625 L 23.046875 -57.140625 Z M 14.796875 -66.6875 L 14.796875 -75.046875 L 23.046875 -75.046875 L 23.046875 -66.6875 Z M 5.359375 -66.6875 L 5.359375 -75.046875 L 13.609375 -75.046875 L 13.609375 -66.6875 Z M 5.359375 -66.6875 "/></g></g></g><g fill="#ffaa64" fill-opacity="1"><g transform="translate(72.744064, 71.822579)"><g><path d="M 55.328125 0 L 55.328125 -8.359375 L 63.578125 -8.359375 L 63.578125 0 Z M 55.328125 -9.546875 L 55.328125 -17.90625 L 63.578125 -17.90625 L 63.578125 -9.546875 Z M 55.328125 -57.140625 L 55.328125 -65.515625 L 63.578125 -65.515625 L 63.578125 -57.140625 Z M 55.328125 -66.6875 L 55.328125 -75.046875 L 63.578125 -75.046875 L 63.578125 -66.6875 Z M 46 0 L 46 -8.359375 L 54.25 -8.359375 L 54.25 0 Z M 46 -9.546875 L 46 -17.90625 L 54.25 -17.90625 L 54.25 -9.546875 Z M 46 -57.140625 L 46 -65.515625 L 54.25 -65.515625 L 54.25 -57.140625 Z M 46 -66.6875 L 46 -75.046875 L 54.25 -75.046875 L 54.25 -66.6875 Z M 36.5625 0 L 36.5625 -8.359375 L 44.8125 -8.359375 L 44.8125 0 Z M 36.5625 -9.546875 L 36.5625 -17.90625 L 44.8125 -17.90625 L 44.8125 -9.546875 Z M 36.5625 -19.078125 L 36.5625 -27.453125 L 44.8125 -27.453125 L 44.8125 -19.078125 Z M 36.5625 -28.625 L 36.5625 -36.984375 L 44.8125 -36.984375 L 44.8125 -28.625 Z M 36.5625 -38.0625 L 36.5625 -46.421875 L 44.8125 -46.421875 L 44.8125 -38.0625 Z M 36.5625 -47.609375 L 36.5625 -55.96875 L 44.8125 -55.96875 L 44.8125 -47.609375 Z M 36.5625 -57.140625 L 36.5625 -65.515625 L 44.8125 -65.515625 L 44.8125 -57.140625 Z M 36.5625 -66.6875 L 36.5625 -75.046875 L 44.8125 -75.046875 L 44.8125 -66.6875 Z M 27.125 0 L 27.125 -8.359375 L 35.375 -8.359375 L 35.375 0 Z M 27.125 -9.546875 L 27.125 -17.90625 L 35.375 -17.90625 L 35.375 -9.546875 Z M 27.125 -19.078125 L 27.125 -27.453125 L 35.375 -27.453125 L 35.375 -19.078125 Z M 27.125 -28.625 L 27.125 -36.984375 L 35.375 -36.984375 L 35.375 -28.625 Z M 27.125 -38.0625 L 27.125 -46.421875 L 35.375 -46.421875 L 35.375 -38.0625 Z M 27.125 -47.609375 L 27.125 -55.96875 L 35.375 -55.96875 L 35.375 -47.609375 Z M 27.125 -57.140625 L 27.125 -65.515625 L 35.375 -65.515625 L 35.375 -57.140625 Z M 27.125 -66.6875 L 27.125 -75.046875 L 35.375 -75.046875 L 35.375 -66.6875 Z M 17.796875 0 L 17.796875 -8.359375 L 26.046875 -8.359375 L 26.046875 0 Z M 17.796875 -9.546875 L 17.796875 -17.90625 L 26.046875 -17.90625 L 26.046875 -9.546875 Z M 17.796875 -57.140625 L 17.796875 -65.515625 L 26.046875 -65.515625 L 26.046875 -57.140625 Z M 17.796875 -66.6875 L 17.796875 -75.046875 L 26.046875 -75.046875 L 26.046875 -66.6875 Z M 8.359375 0 L 8.359375 -8.359375 L 16.625 -8.359375 L 16.625 0 Z M 8.359375 -9.546875 L 8.359375 -17.90625 L 16.625 -17.90625 L 16.625 -9.546875 Z M 8.359375 -57.140625 L 8.359375 -65.515625 L 16.625 -65.515625 L 16.625 -57.140625 Z M 8.359375 -66.6875 L 8.359375 -75.046875 L 16.625 -75.046875 L 16.625 -66.6875 Z M 8.359375 -66.6875 "/></g></g></g><g fill="#ffe264" fill-opacity="1"><g transform="translate(143.736628, 71.822579)"><g><path d="M 74.734375 0 L 74.734375 -8.359375 L 82.984375 -8.359375 L 82.984375 0 Z M 84.0625 0 L 84.0625 -8.359375 L 92.3125 -8.359375 L 92.3125 0 Z M 74.734375 -9.546875 L 74.734375 -17.90625 L 82.984375 -17.90625 L 82.984375 -9.546875 Z M 74.734375 -57.140625 L 74.734375 -65.515625 L 82.984375 -65.515625 L 82.984375 -57.140625 Z M 74.734375 -66.6875 L 74.734375 -75.046875 L 82.984375 -75.046875 L 82.984375 -66.6875 Z M 84.0625 -66.6875 L 84.0625 -75.046875 L 92.3125 -75.046875 L 92.3125 -66.6875 Z M 65.296875 -9.546875 L 65.296875 -17.90625 L 73.546875 -17.90625 L 73.546875 -9.546875 Z M 65.296875 -19.078125 L 65.296875 -27.453125 L 73.546875 -27.453125 L 73.546875 -19.078125 Z M 65.296875 -47.609375 L 65.296875 -55.96875 L 73.546875 -55.96875 L 73.546875 -47.609375 Z M 65.296875 -57.140625 L 65.296875 -65.515625 L 73.546875 -65.515625 L 73.546875 -57.140625 Z M 55.859375 -19.078125 L 55.859375 -27.453125 L 64.109375 -27.453125 L 64.109375 -19.078125 Z M 55.859375 -28.625 L 55.859375 -36.984375 L 64.109375 -36.984375 L 64.109375 -28.625 Z M 55.859375 -38.0625 L 55.859375 -46.421875 L 64.109375 -46.421875 L 64.109375 -38.0625 Z M 55.859375 -47.609375 L 55.859375 -55.96875 L 64.109375 -55.96875 L 64.109375 -47.609375 Z M 46.53125 -28.625 L 46.53125 -36.984375 L 54.78125 -36.984375 L 54.78125 -28.625 Z M 46.53125 -38.0625 L 46.53125 -46.421875 L 54.78125 -46.421875 L 54.78125 -38.0625 Z M 37.09375 -19.078125 L 37.09375 -27.453125 L 45.359375 -27.453125 L 45.359375 -19.078125 Z M 37.09375 -28.625 L 37.09375 -36.984375 L 45.359375 -36.984375 L 45.359375 -28.625 Z M 37.09375 -38.0625 L 37.09375 -46.421875 L 45.359375 -46.421875 L 45.359375 -38.0625 Z M 37.09375 -47.609375 L 37.09375 -55.96875 L 45.359375 -55.96875 L 45.359375 -47.609375 Z M 27.65625 -9.546875 L 27.65625 -17.90625 L 35.921875 -17.90625 L 35.921875 -9.546875 Z M 27.65625 -19.078125 L 27.65625 -27.453125 L 35.921875 -27.453125 L 35.921875 -19.078125 Z M 27.65625 -47.609375 L 27.65625 -55.96875 L 35.921875 -55.96875 L 35.921875 -47.609375 Z M 27.65625 -57.140625 L 27.65625 -65.515625 L 35.921875 -65.515625 L 35.921875 -57.140625 Z M 18.328125 0 L 18.328125 -8.359375 L 26.484375 -8.359375 L 26.484375 0 Z M 9.4375 0 L 9.4375 -8.359375 L 17.6875 -8.359375 L 17.6875 0 Z M 18.328125 -9.546875 L 18.328125 -17.90625 L 26.484375 -17.90625 L 26.484375 -9.546875 Z M 18.328125 -57.140625 L 18.328125 -65.515625 L 26.484375 -65.515625 L 26.484375 -57.140625 Z M 18.328125 -66.6875 L 18.328125 -75.046875 L 26.484375 -75.046875 L 26.484375 -66.6875 Z M 9.21875 -66.6875 L 9.21875 -75.046875 L 17.484375 -75.046875 L 17.484375 -66.6875 Z M 9.21875 -66.6875 "/></g></g></g><g fill="#64ff8f" fill-opacity="1"><g transform="translate(244.257073, 71.822579)"><g><path d="M 46.21875 0 L 46.21875 -8.359375 L 54.46875 -8.359375 L 54.46875 0 Z M 46.21875 -9.546875 L 46.21875 -17.90625 L 54.46875 -17.90625 L 54.46875 -9.546875 Z M 46.21875 -28.625 L 46.21875 -36.984375 L 54.46875 -36.984375 L 54.46875 -28.625 Z M 46.21875 -38.0625 L 46.21875 -46.421875 L 54.46875 -46.421875 L 54.46875 -38.0625 Z M 46.21875 -57.140625 L 46.21875 -65.515625 L 54.46875 -65.515625 L 54.46875 -57.140625 Z M 46.21875 -66.6875 L 46.21875 -75.046875 L 54.46875 -75.046875 L 54.46875 -66.6875 Z M 55.546875 0 L 55.546875 -8.359375 L 63.796875 -8.359375 L 63.796875 0 Z M 55.546875 -9.546875 L 55.546875 -17.90625 L 63.796875 -17.90625 L 63.796875 -9.546875 Z M 55.546875 -28.625 L 55.546875 -36.984375 L 63.796875 -36.984375 L 63.796875 -28.625 Z M 55.546875 -38.0625 L 55.546875 -46.421875 L 63.796875 -46.421875 L 63.796875 -38.0625 Z M 55.546875 -57.140625 L 55.546875 -65.515625 L 63.796875 -65.515625 L 63.796875 -57.140625 Z M 55.546875 -66.6875 L 55.546875 -75.046875 L 63.796875 -75.046875 L 63.796875 -66.6875 Z M 36.78125 0 L 36.78125 -8.359375 L 45.03125 -8.359375 L 45.03125 0 Z M 36.78125 -9.546875 L 36.78125 -17.90625 L 45.03125 -17.90625 L 45.03125 -9.546875 Z M 36.78125 -28.625 L 36.78125 -36.984375 L 45.03125 -36.984375 L 45.03125 -28.625 Z M 36.78125 -38.0625 L 36.78125 -46.421875 L 45.03125 -46.421875 L 45.03125 -38.0625 Z M 36.78125 -57.140625 L 36.78125 -65.515625 L 45.03125 -65.515625 L 45.03125 -57.140625 Z M 36.78125 -66.6875 L 36.78125 -75.046875 L 45.03125 -75.046875 L 45.03125 -66.6875 Z M 27.34375 0 L 27.34375 -8.359375 L 35.59375 -8.359375 L 35.59375 0 Z M 27.34375 -9.546875 L 27.34375 -17.90625 L 35.59375 -17.90625 L 35.59375 -9.546875 Z M 27.34375 -28.625 L 27.34375 -36.984375 L 35.59375 -36.984375 L 35.59375 -28.625 Z M 27.34375 -38.0625 L 27.34375 -46.421875 L 35.59375 -46.421875 L 35.59375 -38.0625 Z M 27.34375 -57.140625 L 27.34375 -65.515625 L 35.59375 -65.515625 L 35.59375 -57.140625 Z M 27.34375 -66.6875 L 27.34375 -75.046875 L 35.59375 -75.046875 L 35.59375 -66.6875 Z M 18.015625 0 L 18.015625 -8.359375 L 26.265625 -8.359375 L 26.265625 0 Z M 18.015625 -9.546875 L 18.015625 -17.90625 L 26.265625 -17.90625 L 26.265625 -9.546875 Z M 18.015625 -19.078125 L 18.015625 -27.453125 L 26.265625 -27.453125 L 26.265625 -19.078125 Z M 18.015625 -28.625 L 18.015625 -36.984375 L 26.265625 -36.984375 L 26.265625 -28.625 Z M 18.015625 -38.0625 L 18.015625 -46.421875 L 26.265625 -46.421875 L 26.265625 -38.0625 Z M 18.015625 -47.609375 L 18.015625 -55.96875 L 26.265625 -55.96875 L 26.265625 -47.609375 Z M 18.015625 -57.140625 L 18.015625 -65.515625 L 26.265625 -65.515625 L 26.265625 -57.140625 Z M 18.015625 -66.6875 L 18.015625 -75.046875 L 26.265625 -75.046875 L 26.265625 -66.6875 Z M 8.578125 -9.546875 L 8.578125 -17.90625 L 16.828125 -17.90625 L 16.828125 -9.546875 Z M 8.578125 -19.078125 L 8.578125 -27.453125 L 16.828125 -27.453125 L 16.828125 -19.078125 Z M 8.578125 -28.625 L 8.578125 -36.984375 L 16.828125 -36.984375 L 16.828125 -28.625 Z M 8.578125 -38.0625 L 8.578125 -46.421875 L 16.828125 -46.421875 L 16.828125 -38.0625 Z M 8.578125 -47.609375 L 8.578125 -55.96875 L 16.828125 -55.96875 L 16.828125 -47.609375 Z M 8.578125 -57.140625 L 8.578125 -65.515625 L 16.828125 -65.515625 L 16.828125 -57.140625 Z M 8.578125 -57.140625 "/></g></g></g><g fill="#64ecff" fill-opacity="1"><g transform="translate(315.877889, 71.822579)"><g><path d="M 45.78125 0 L 45.78125 -8.359375 L 54.03125 -8.359375 L 54.03125 0 Z M 45.78125 -9.546875 L 45.78125 -17.90625 L 54.03125 -17.90625 L 54.03125 -9.546875 Z M 54.890625 0 L 54.890625 -8.359375 L 63.15625 -8.359375 L 63.15625 0 Z M 54.890625 -9.546875 L 54.890625 -17.90625 L 63.15625 -17.90625 L 63.15625 -9.546875 Z M 36.34375 0 L 36.34375 -8.359375 L 44.609375 -8.359375 L 44.609375 0 Z M 36.34375 -9.546875 L 36.34375 -17.90625 L 44.609375 -17.90625 L 44.609375 -9.546875 Z M 26.90625 0 L 26.90625 -8.359375 L 35.171875 -8.359375 L 35.171875 0 Z M 26.90625 -9.546875 L 26.90625 -17.90625 L 35.171875 -17.90625 L 35.171875 -9.546875 Z M 17.578125 0 L 17.578125 -8.359375 L 25.84375 -8.359375 L 25.84375 0 Z M 17.578125 -9.546875 L 17.578125 -17.90625 L 25.84375 -17.90625 L 25.84375 -9.546875 Z M 17.578125 -19.078125 L 17.578125 -27.453125 L 25.84375 -27.453125 L 25.84375 -19.078125 Z M 17.578125 -28.625 L 17.578125 -36.984375 L 25.84375 -36.984375 L 25.84375 -28.625 Z M 17.578125 -38.0625 L 17.578125 -46.421875 L 25.84375 -46.421875 L 25.84375 -38.0625 Z M 17.578125 -47.609375 L 17.578125 -55.96875 L 25.84375 -55.96875 L 25.84375 -47.609375 Z M 17.578125 -57.140625 L 17.578125 -65.515625 L 25.84375 -65.515625 L 25.84375 -57.140625 Z M 17.578125 -66.6875 L 17.578125 -75.046875 L 25.84375 -75.046875 L 25.84375 -66.6875 Z M 8.15625 0 L 8.15625 -8.359375 L 16.40625 -8.359375 L 16.40625 0 Z M 8.15625 -9.546875 L 8.15625 -17.90625 L 16.40625 -17.90625 L 16.40625 -9.546875 Z M 8.15625 -19.078125 L 8.15625 -27.453125 L 16.40625 -27.453125 L 16.40625 -19.078125 Z M 8.15625 -28.625 L 8.15625 -36.984375 L 16.40625 -36.984375 L 16.40625 -28.625 Z M 8.15625 -38.0625 L 8.15625 -46.421875 L 16.40625 -46.421875 L 16.40625 -38.0625 Z M 8.15625 -47.609375 L 8.15625 -55.96875 L 16.40625 -55.96875 L 16.40625 -47.609375 Z M 8.15625 -57.140625 L 8.15625 -65.515625 L 16.40625 -65.515625 L 16.40625 -57.140625 Z M 8.15625 -66.6875 L 8.15625 -75.046875 L 16.40625 -75.046875 L 16.40625 -66.6875 Z M 8.15625 -66.6875 "/></g></g></g><g fill="#000000" fill-opacity="1"><g transform="translate(385.823366, 71.822579)"><g/></g></g><g fill="#6494ff" fill-opacity="1"><g transform="translate(444.879127, 71.822579)"><g><path d="M 55.109375 -0.53125 L 55.109375 -8.90625 L 63.359375 -8.90625 L 63.359375 -0.53125 Z M 55.109375 -10.078125 L 55.109375 -18.4375 L 63.359375 -18.4375 L 63.359375 -10.078125 Z M 55.109375 -19.625 L 55.109375 -27.984375 L 63.359375 -27.984375 L 63.359375 -19.625 Z M 55.109375 -29.15625 L 55.109375 -37.53125 L 63.359375 -37.53125 L 63.359375 -29.15625 Z M 55.109375 -38.703125 L 55.109375 -47.0625 L 63.359375 -47.0625 L 63.359375 -38.703125 Z M 55.109375 -48.25 L 55.109375 -56.609375 L 63.359375 -56.609375 L 63.359375 -48.25 Z M 55.109375 -57.6875 L 55.109375 -66.15625 L 63.359375 -66.15625 L 63.359375 -57.6875 Z M 45.78125 -0.53125 L 45.78125 -8.90625 L 54.03125 -8.90625 L 54.03125 -0.53125 Z M 45.78125 -10.078125 L 45.78125 -18.4375 L 54.03125 -18.4375 L 54.03125 -10.078125 Z M 45.78125 -19.625 L 45.78125 -27.984375 L 54.03125 -27.984375 L 54.03125 -19.625 Z M 45.78125 -29.15625 L 45.78125 -37.53125 L 54.03125 -37.53125 L 54.03125 -29.15625 Z M 45.78125 -38.703125 L 45.78125 -47.0625 L 54.03125 -47.0625 L 54.03125 -38.703125 Z M 45.78125 -48.25 L 45.78125 -56.609375 L 54.03125 -56.609375 L 54.03125 -48.25 Z M 45.78125 -57.6875 L 45.78125 -66.15625 L 54.03125 -66.15625 L 54.03125 -57.6875 Z M 45.78125 -67.21875 L 45.78125 -75.59375 L 54.03125 -75.59375 L 54.03125 -67.21875 Z M 36.34375 -29.15625 L 36.34375 -37.53125 L 44.609375 -37.53125 L 44.609375 -29.15625 Z M 36.34375 -57.6875 L 36.34375 -66.15625 L 44.609375 -66.15625 L 44.609375 -57.6875 Z M 36.34375 -67.21875 L 36.34375 -75.59375 L 44.609375 -75.59375 L 44.609375 -67.21875 Z M 26.90625 -29.15625 L 26.90625 -37.53125 L 35.171875 -37.53125 L 35.171875 -29.15625 Z M 26.90625 -57.6875 L 26.90625 -66.15625 L 35.171875 -66.15625 L 35.171875 -57.6875 Z M 26.90625 -67.21875 L 26.90625 -75.59375 L 35.171875 -75.59375 L 35.171875 -67.21875 Z M 17.578125 -0.53125 L 17.578125 -8.90625 L 25.84375 -8.90625 L 25.84375 -0.53125 Z M 17.578125 -10.078125 L 17.578125 -18.4375 L 25.84375 -18.4375 L 25.84375 -10.078125 Z M 17.578125 -19.625 L 17.578125 -27.984375 L 25.84375 -27.984375 L 25.84375 -19.625 Z M 17.578125 -29.15625 L 17.578125 -37.53125 L 25.84375 -37.53125 L 25.84375 -29.15625 Z M 17.578125 -38.703125 L 17.578125 -47.0625 L 25.84375 -47.0625 L 25.84375 -38.703125 Z M 17.578125 -48.25 L 17.578125 -56.609375 L 25.84375 -56.609375 L 25.84375 -48.25 Z M 17.578125 -57.6875 L 17.578125 -66.15625 L 25.84375 -66.15625 L 25.84375 -57.6875 Z M 17.578125 -67.21875 L 17.578125 -75.59375 L 25.84375 -75.59375 L 25.84375 -67.21875 Z M 8.15625 -0.53125 L 8.15625 -8.90625 L 16.40625 -8.90625 L 16.40625 -0.53125 Z M 8.15625 -10.078125 L 8.15625 -18.4375 L 16.40625 -18.4375 L 16.40625 -10.078125 Z M 8.15625 -19.625 L 8.15625 -27.984375 L 16.40625 -27.984375 L 16.40625 -19.625 Z M 8.15625 -29.15625 L 8.15625 -37.53125 L 16.40625 -37.53125 L 16.40625 -29.15625 Z M 8.15625 -38.703125 L 8.15625 -47.0625 L 16.40625 -47.0625 L 16.40625 -38.703125 Z M 8.15625 -48.25 L 8.15625 -56.609375 L 16.40625 -56.609375 L 16.40625 -48.25 Z M 8.15625 -57.6875 L 8.15625 -66.15625 L 16.40625 -66.15625 L 16.40625 -57.6875 Z M 8.15625 -57.6875 "/></g></g></g><g fill="#ad64ff" fill-opacity="1"><g transform="translate(514.824603, 71.822579)"><g><path d="M 64.015625 0 L 64.015625 -8.359375 L 72.265625 -8.359375 L 72.265625 0 Z M 54.578125 0 L 54.578125 -8.359375 L 62.828125 -8.359375 L 62.828125 0 Z M 54.578125 -9.546875 L 54.578125 -17.90625 L 62.828125 -17.90625 L 62.828125 -9.546875 Z M 54.578125 -28.625 L 54.578125 -36.984375 L 62.828125 -36.984375 L 62.828125 -28.625 Z M 54.578125 -38.0625 L 54.578125 -46.421875 L 62.828125 -46.421875 L 62.828125 -38.0625 Z M 54.578125 -47.609375 L 54.578125 -55.96875 L 62.828125 -55.96875 L 62.828125 -47.609375 Z M 54.578125 -57.140625 L 54.578125 -65.515625 L 62.828125 -65.515625 L 62.828125 -57.140625 Z M 45.25 -9.546875 L 45.25 -17.90625 L 53.5 -17.90625 L 53.5 -9.546875 Z M 45.25 -19.078125 L 45.25 -27.453125 L 53.5 -27.453125 L 53.5 -19.078125 Z M 45.25 -28.625 L 45.25 -36.984375 L 53.5 -36.984375 L 53.5 -28.625 Z M 45.25 -38.0625 L 45.25 -46.421875 L 53.5 -46.421875 L 53.5 -38.0625 Z M 45.25 -47.609375 L 45.25 -55.96875 L 53.5 -55.96875 L 53.5 -47.609375 Z M 45.25 -57.140625 L 45.25 -65.515625 L 53.5 -65.515625 L 53.5 -57.140625 Z M 45.25 -66.6875 L 45.25 -75.046875 L 53.5 -75.046875 L 53.5 -66.6875 Z M 35.8125 -19.078125 L 35.8125 -27.453125 L 44.0625 -27.453125 L 44.0625 -19.078125 Z M 35.8125 -28.625 L 35.8125 -36.984375 L 44.0625 -36.984375 L 44.0625 -28.625 Z M 35.8125 -38.0625 L 35.8125 -46.421875 L 44.0625 -46.421875 L 44.0625 -38.0625 Z M 35.8125 -57.140625 L 35.8125 -65.515625 L 44.0625 -65.515625 L 44.0625 -57.140625 Z M 35.8125 -66.6875 L 35.8125 -75.046875 L 44.0625 -75.046875 L 44.0625 -66.6875 Z M 26.375 -28.625 L 26.375 -36.984375 L 34.625 -36.984375 L 34.625 -28.625 Z M 26.375 -38.0625 L 26.375 -46.421875 L 34.625 -46.421875 L 34.625 -38.0625 Z M 26.375 -57.140625 L 26.375 -65.515625 L 34.625 -65.515625 L 34.625 -57.140625 Z M 26.375 -66.6875 L 26.375 -75.046875 L 34.625 -75.046875 L 34.625 -66.6875 Z M 17.046875 0 L 17.046875 -8.359375 L 25.296875 -8.359375 L 25.296875 0 Z M 17.046875 -9.546875 L 17.046875 -17.90625 L 25.296875 -17.90625 L 25.296875 -9.546875 Z M 17.046875 -19.078125 L 17.046875 -27.453125 L 25.296875 -27.453125 L 25.296875 -19.078125 Z M 17.046875 -28.625 L 17.046875 -36.984375 L 25.296875 -36.984375 L 25.296875 -28.625 Z M 17.046875 -38.0625 L 17.046875 -46.421875 L 25.296875 -46.421875 L 25.296875 -38.0625 Z M 17.046875 -47.609375 L 17.046875 -55.96875 L 25.296875 -55.96875 L 25.296875 -47.609375 Z M 17.046875 -57.140625 L 17.046875 -65.515625 L 25.296875 -65.515625 L 25.296875 -57.140625 Z M 17.046875 -66.6875 L 17.046875 -75.046875 L 25.296875 -75.046875 L 25.296875 -66.6875 Z M 7.609375 0 L 7.609375 -8.359375 L 15.875 -8.359375 L 15.875 0 Z M 7.609375 -9.546875 L 7.609375 -17.90625 L 15.875 -17.90625 L 15.875 -9.546875 Z M 7.609375 -19.078125 L 7.609375 -27.453125 L 15.875 -27.453125 L 15.875 -19.078125 Z M 7.609375 -28.625 L 7.609375 -36.984375 L 15.875 -36.984375 L 15.875 -28.625 Z M 7.609375 -38.0625 L 7.609375 -46.421875 L 15.875 -46.421875 L 15.875 -38.0625 Z M 7.609375 -47.609375 L 7.609375 -55.96875 L 15.875 -55.96875 L 15.875 -47.609375 Z M 7.609375 -57.140625 L 7.609375 -65.515625 L 15.875 -65.515625 L 15.875 -57.140625 Z M 7.609375 -66.6875 L 7.609375 -75.046875 L 15.875 -75.046875 L 15.875 -66.6875 Z M 7.609375 -66.6875 "/></g></g></g><g fill="#fc64ff" fill-opacity="1"><g transform="translate(592.413821, 71.822579)"><g><path d="M 55.546875 -57.140625 L 55.546875 -65.515625 L 63.796875 -65.515625 L 63.796875 -57.140625 Z M 55.546875 -66.6875 L 55.546875 -75.046875 L 63.796875 -75.046875 L 63.796875 -66.6875 Z M 46.21875 -57.140625 L 46.21875 -65.515625 L 54.46875 -65.515625 L 54.46875 -57.140625 Z M 46.21875 -66.6875 L 46.21875 -75.046875 L 54.46875 -75.046875 L 54.46875 -66.6875 Z M 36.78125 0 L 36.78125 -8.359375 L 45.03125 -8.359375 L 45.03125 0 Z M 36.78125 -9.546875 L 36.78125 -17.90625 L 45.03125 -17.90625 L 45.03125 -9.546875 Z M 36.78125 -19.078125 L 36.78125 -27.453125 L 45.03125 -27.453125 L 45.03125 -19.078125 Z M 36.78125 -28.625 L 36.78125 -36.984375 L 45.03125 -36.984375 L 45.03125 -28.625 Z M 36.78125 -38.0625 L 36.78125 -46.421875 L 45.03125 -46.421875 L 45.03125 -38.0625 Z M 36.78125 -47.609375 L 36.78125 -55.96875 L 45.03125 -55.96875 L 45.03125 -47.609375 Z M 36.78125 -57.140625 L 36.78125 -65.515625 L 45.03125 -65.515625 L 45.03125 -57.140625 Z M 36.78125 -66.6875 L 36.78125 -75.046875 L 45.03125 -75.046875 L 45.03125 -66.6875 Z M 27.34375 0 L 27.34375 -8.359375 L 35.59375 -8.359375 L 35.59375 0 Z M 27.34375 -9.546875 L 27.34375 -17.90625 L 35.59375 -17.90625 L 35.59375 -9.546875 Z M 27.34375 -19.078125 L 27.34375 -27.453125 L 35.59375 -27.453125 L 35.59375 -19.078125 Z M 27.34375 -28.625 L 27.34375 -36.984375 L 35.59375 -36.984375 L 35.59375 -28.625 Z M 27.34375 -38.0625 L 27.34375 -46.421875 L 35.59375 -46.421875 L 35.59375 -38.0625 Z M 27.34375 -47.609375 L 27.34375 -55.96875 L 35.59375 -55.96875 L 35.59375 -47.609375 Z M 27.34375 -57.140625 L 27.34375 -65.515625 L 35.59375 -65.515625 L 35.59375 -57.140625 Z M 27.34375 -66.6875 L 27.34375 -75.046875 L 35.59375 -75.046875 L 35.59375 -66.6875 Z M 18.015625 -57.140625 L 18.015625 -65.515625 L 26.265625 -65.515625 L 26.265625 -57.140625 Z M 18.015625 -66.6875 L 18.015625 -75.046875 L 26.265625 -75.046875 L 26.265625 -66.6875 Z M 8.578125 -57.140625 L 8.578125 -65.515625 L 16.828125 -65.515625 L 16.828125 -57.140625 Z M 8.578125 -66.6875 L 8.578125 -75.046875 L 16.828125 -75.046875 L 16.828125 -66.6875 Z M 8.578125 -66.6875 "/></g></g></g></svg>