<svg xmlns="http://www.w3.org/2000/svg" xmlns:xlink="http://www.w3.org/1999/xlink" width="876" zoomAndPan="magnify" viewBox="0 0 657 74.999997" height="100" preserveAspectRatio="xMidYMid meet" version="1.0"><defs><g/></defs><g fill="#ff6464" fill-opacity="1"><g transform="translate(1.808009, 71.386475)"><g><path d="M 60.546875 -37.3125 L 60.546875 -45.515625 L 68.640625 -45.515625 L 68.640625 -37.3125 Z M 60.546875 -46.671875 L 60.546875 -54.875 L 68.640625 -54.875 L 68.640625 -46.671875 Z M 60.546875 -56.03125 L 60.546875 -64.234375 L 68.640625 -64.234375 L 68.640625 -56.03125 Z M 51.296875 -28.0625 L 51.296875 -36.265625 L 59.390625 -36.265625 L 59.390625 -28.0625 Z M 51.296875 -37.3125 L 51.296875 -45.515625 L 59.390625 -45.515625 L 59.390625 -37.3125 Z M 51.296875 -46.671875 L 51.296875 -54.875 L 59.390625 -54.875 L 59.390625 -46.671875 Z M 51.296875 -56.03125 L 51.296875 -64.234375 L 59.390625 -64.234375 L 59.390625 -56.03125 Z M 51.296875 -65.390625 L 51.296875 -73.59375 L 59.390625 -73.59375 L 59.390625 -65.390625 Z M 42.15625 -28.0625 L 42.15625 -36.265625 L 50.25 -36.265625 L 50.25 -28.0625 Z M 42.15625 -37.3125 L 42.15625 -45.515625 L 50.25 -45.515625 L 50.25 -37.3125 Z M 42.15625 -56.03125 L 42.15625 -64.234375 L 50.25 -64.234375 L 50.25 -56.03125 Z M 42.15625 -65.390625 L 42.15625 -73.59375 L 50.25 -73.59375 L 50.25 -65.390625 Z M 32.90625 -28.0625 L 32.90625 -36.265625 L 41 -36.265625 L 41 -28.0625 Z M 32.90625 -37.3125 L 32.90625 -45.515625 L 41 -45.515625 L 41 -37.3125 Z M 32.90625 -56.03125 L 32.90625 -64.234375 L 41 -64.234375 L 41 -56.03125 Z M 32.90625 -65.390625 L 32.90625 -73.59375 L 41 -73.59375 L 41 -65.390625 Z M 23.65625 0 L 23.65625 -8.203125 L 31.75 -8.203125 L 31.75 0 Z M 23.65625 -9.359375 L 23.65625 -17.5625 L 31.75 -17.5625 L 31.75 -9.359375 Z M 23.65625 -18.71875 L 23.65625 -26.90625 L 31.75 -26.90625 L 31.75 -18.71875 Z M 23.65625 -28.0625 L 23.65625 -36.265625 L 31.75 -36.265625 L 31.75 -28.0625 Z M 23.65625 -37.3125 L 23.65625 -45.515625 L 31.75 -45.515625 L 31.75 -37.3125 Z M 23.65625 -46.671875 L 23.65625 -54.875 L 31.75 -54.875 L 31.75 -46.671875 Z M 23.65625 -56.03125 L 23.65625 -64.234375 L 31.75 -64.234375 L 31.75 -56.03125 Z M 23.65625 -65.390625 L 23.65625 -73.59375 L 31.75 -73.59375 L 31.75 -65.390625 Z M 14.5 0 L 14.5 -8.203125 L 22.609375 -8.203125 L 22.609375 0 Z M 14.5 -9.359375 L 14.5 -17.5625 L 22.609375 -17.5625 L 22.609375 -9.359375 Z M 14.5 -18.71875 L 14.5 -26.90625 L 22.609375 -26.90625 L 22.609375 -18.71875 Z M 14.5 -28.0625 L 14.5 -36.265625 L 22.609375 -36.265625 L 22.609375 -28.0625 Z M 14.5 -37.3125 L 14.5 -45.515625 L 22.609375 -45.515625 L 22.609375 -37.3125 Z M 14.5 -46.671875 L 14.5 -54.875 L 22.609375 -54.875 L 22.609375 -46.671875 Z M 14.5 -56.03125 L 14.5 -64.234375 L 22.609375 -64.234375 L 22.609375 -56.03125 Z M 14.5 -65.390625 L 14.5 -73.59375 L 22.609375 -73.59375 L 22.609375 -65.390625 Z M 5.25 -65.390625 L 5.25 -73.59375 L 13.34375 -73.59375 L 13.34375 -65.390625 Z M 5.25 -65.390625 "/></g></g></g><g fill="#ffaa64" fill-opacity="1"><g transform="translate(78.293563, 71.386475)"><g><path d="M 54.25 0 L 54.25 -8.203125 L 62.34375 -8.203125 L 62.34375 0 Z M 54.25 -9.359375 L 54.25 -17.5625 L 62.34375 -17.5625 L 62.34375 -9.359375 Z M 54.25 -56.03125 L 54.25 -64.234375 L 62.34375 -64.234375 L 62.34375 -56.03125 Z M 54.25 -65.390625 L 54.25 -73.59375 L 62.34375 -73.59375 L 62.34375 -65.390625 Z M 45.09375 0 L 45.09375 -8.203125 L 53.1875 -8.203125 L 53.1875 0 Z M 45.09375 -9.359375 L 45.09375 -17.5625 L 53.1875 -17.5625 L 53.1875 -9.359375 Z M 45.09375 -56.03125 L 45.09375 -64.234375 L 53.1875 -64.234375 L 53.1875 -56.03125 Z M 45.09375 -65.390625 L 45.09375 -73.59375 L 53.1875 -73.59375 L 53.1875 -65.390625 Z M 35.84375 0 L 35.84375 -8.203125 L 43.9375 -8.203125 L 43.9375 0 Z M 35.84375 -9.359375 L 35.84375 -17.5625 L 43.9375 -17.5625 L 43.9375 -9.359375 Z M 35.84375 -18.71875 L 35.84375 -26.90625 L 43.9375 -26.90625 L 43.9375 -18.71875 Z M 35.84375 -28.0625 L 35.84375 -36.265625 L 43.9375 -36.265625 L 43.9375 -28.0625 Z M 35.84375 -37.3125 L 35.84375 -45.515625 L 43.9375 -45.515625 L 43.9375 -37.3125 Z M 35.84375 -46.671875 L 35.84375 -54.875 L 43.9375 -54.875 L 43.9375 -46.671875 Z M 35.84375 -56.03125 L 35.84375 -64.234375 L 43.9375 -64.234375 L 43.9375 -56.03125 Z M 35.84375 -65.390625 L 35.84375 -73.59375 L 43.9375 -73.59375 L 43.9375 -65.390625 Z M 26.59375 0 L 26.59375 -8.203125 L 34.6875 -8.203125 L 34.6875 0 Z M 26.59375 -9.359375 L 26.59375 -17.5625 L 34.6875 -17.5625 L 34.6875 -9.359375 Z M 26.59375 -18.71875 L 26.59375 -26.90625 L 34.6875 -26.90625 L 34.6875 -18.71875 Z M 26.59375 -28.0625 L 26.59375 -36.265625 L 34.6875 -36.265625 L 34.6875 -28.0625 Z M 26.59375 -37.3125 L 26.59375 -45.515625 L 34.6875 -45.515625 L 34.6875 -37.3125 Z M 26.59375 -46.671875 L 26.59375 -54.875 L 34.6875 -54.875 L 34.6875 -46.671875 Z M 26.59375 -56.03125 L 26.59375 -64.234375 L 34.6875 -64.234375 L 34.6875 -56.03125 Z M 26.59375 -65.390625 L 26.59375 -73.59375 L 34.6875 -73.59375 L 34.6875 -65.390625 Z M 17.453125 0 L 17.453125 -8.203125 L 25.546875 -8.203125 L 25.546875 0 Z M 17.453125 -9.359375 L 17.453125 -17.5625 L 25.546875 -17.5625 L 25.546875 -9.359375 Z M 17.453125 -56.03125 L 17.453125 -64.234375 L 25.546875 -64.234375 L 25.546875 -56.03125 Z M 17.453125 -65.390625 L 17.453125 -73.59375 L 25.546875 -73.59375 L 25.546875 -65.390625 Z M 8.203125 0 L 8.203125 -8.203125 L 16.296875 -8.203125 L 16.296875 0 Z M 8.203125 -9.359375 L 8.203125 -17.5625 L 16.296875 -17.5625 L 16.296875 -9.359375 Z M 8.203125 -56.03125 L 8.203125 -64.234375 L 16.296875 -64.234375 L 16.296875 -56.03125 Z M 8.203125 -65.390625 L 8.203125 -73.59375 L 16.296875 -73.59375 L 16.296875 -65.390625 Z M 8.203125 -65.390625 "/></g></g></g><g fill="#ffe264" fill-opacity="1"><g transform="translate(147.900551, 71.386475)"><g><path d="M 73.265625 0 L 73.265625 -8.203125 L 81.359375 -8.203125 L 81.359375 0 Z M 82.421875 0 L 82.421875 -8.203125 L 90.515625 -8.203125 L 90.515625 0 Z M 73.265625 -9.359375 L 73.265625 -17.5625 L 81.359375 -17.5625 L 81.359375 -9.359375 Z M 73.265625 -56.03125 L 73.265625 -64.234375 L 81.359375 -64.234375 L 81.359375 -56.03125 Z M 73.265625 -65.390625 L 73.265625 -73.59375 L 81.359375 -73.59375 L 81.359375 -65.390625 Z M 82.421875 -65.390625 L 82.421875 -73.59375 L 90.515625 -73.59375 L 90.515625 -65.390625 Z M 64.015625 -9.359375 L 64.015625 -17.5625 L 72.109375 -17.5625 L 72.109375 -9.359375 Z M 64.015625 -18.71875 L 64.015625 -26.90625 L 72.109375 -26.90625 L 72.109375 -18.71875 Z M 64.015625 -46.671875 L 64.015625 -54.875 L 72.109375 -54.875 L 72.109375 -46.671875 Z M 64.015625 -56.03125 L 64.015625 -64.234375 L 72.109375 -64.234375 L 72.109375 -56.03125 Z M 54.765625 -18.71875 L 54.765625 -26.90625 L 62.859375 -26.90625 L 62.859375 -18.71875 Z M 54.765625 -28.0625 L 54.765625 -36.265625 L 62.859375 -36.265625 L 62.859375 -28.0625 Z M 54.765625 -37.3125 L 54.765625 -45.515625 L 62.859375 -45.515625 L 62.859375 -37.3125 Z M 54.765625 -46.671875 L 54.765625 -54.875 L 62.859375 -54.875 L 62.859375 -46.671875 Z M 45.625 -28.0625 L 45.625 -36.265625 L 53.71875 -36.265625 L 53.71875 -28.0625 Z M 45.625 -37.3125 L 45.625 -45.515625 L 53.71875 -45.515625 L 53.71875 -37.3125 Z M 36.375 -18.71875 L 36.375 -26.90625 L 44.46875 -26.90625 L 44.46875 -18.71875 Z M 36.375 -28.0625 L 36.375 -36.265625 L 44.46875 -36.265625 L 44.46875 -28.0625 Z M 36.375 -37.3125 L 36.375 -45.515625 L 44.46875 -45.515625 L 44.46875 -37.3125 Z M 36.375 -46.671875 L 36.375 -54.875 L 44.46875 -54.875 L 44.46875 -46.671875 Z M 27.125 -9.359375 L 27.125 -17.5625 L 35.21875 -17.5625 L 35.21875 -9.359375 Z M 27.125 -18.71875 L 27.125 -26.90625 L 35.21875 -26.90625 L 35.21875 -18.71875 Z M 27.125 -46.671875 L 27.125 -54.875 L 35.21875 -54.875 L 35.21875 -46.671875 Z M 27.125 -56.03125 L 27.125 -64.234375 L 35.21875 -64.234375 L 35.21875 -56.03125 Z M 17.96875 0 L 17.96875 -8.203125 L 25.96875 -8.203125 L 25.96875 0 Z M 9.25 0 L 9.25 -8.203125 L 17.34375 -8.203125 L 17.34375 0 Z M 17.96875 -9.359375 L 17.96875 -17.5625 L 25.96875 -17.5625 L 25.96875 -9.359375 Z M 17.96875 -56.03125 L 17.96875 -64.234375 L 25.96875 -64.234375 L 25.96875 -56.03125 Z M 17.96875 -65.390625 L 17.96875 -73.59375 L 25.96875 -73.59375 L 25.96875 -65.390625 Z M 9.046875 -65.390625 L 9.046875 -73.59375 L 17.140625 -73.59375 L 17.140625 -65.390625 Z M 9.046875 -65.390625 "/></g></g></g><g fill="#64ff8f" fill-opacity="1"><g transform="translate(246.459118, 71.386475)"><g><path d="M 45.3125 0 L 45.3125 -8.203125 L 53.40625 -8.203125 L 53.40625 0 Z M 45.3125 -9.359375 L 45.3125 -17.5625 L 53.40625 -17.5625 L 53.40625 -9.359375 Z M 45.3125 -28.0625 L 45.3125 -36.265625 L 53.40625 -36.265625 L 53.40625 -28.0625 Z M 45.3125 -37.3125 L 45.3125 -45.515625 L 53.40625 -45.515625 L 53.40625 -37.3125 Z M 45.3125 -56.03125 L 45.3125 -64.234375 L 53.40625 -64.234375 L 53.40625 -56.03125 Z M 45.3125 -65.390625 L 45.3125 -73.59375 L 53.40625 -73.59375 L 53.40625 -65.390625 Z M 54.453125 0 L 54.453125 -8.203125 L 62.546875 -8.203125 L 62.546875 0 Z M 54.453125 -9.359375 L 54.453125 -17.5625 L 62.546875 -17.5625 L 62.546875 -9.359375 Z M 54.453125 -28.0625 L 54.453125 -36.265625 L 62.546875 -36.265625 L 62.546875 -28.0625 Z M 54.453125 -37.3125 L 54.453125 -45.515625 L 62.546875 -45.515625 L 62.546875 -37.3125 Z M 54.453125 -56.03125 L 54.453125 -64.234375 L 62.546875 -64.234375 L 62.546875 -56.03125 Z M 54.453125 -65.390625 L 54.453125 -73.59375 L 62.546875 -73.59375 L 62.546875 -65.390625 Z M 36.0625 0 L 36.0625 -8.203125 L 44.15625 -8.203125 L 44.15625 0 Z M 36.0625 -9.359375 L 36.0625 -17.5625 L 44.15625 -17.5625 L 44.15625 -9.359375 Z M 36.0625 -28.0625 L 36.0625 -36.265625 L 44.15625 -36.265625 L 44.15625 -28.0625 Z M 36.0625 -37.3125 L 36.0625 -45.515625 L 44.15625 -45.515625 L 44.15625 -37.3125 Z M 36.0625 -56.03125 L 36.0625 -64.234375 L 44.15625 -64.234375 L 44.15625 -56.03125 Z M 36.0625 -65.390625 L 36.0625 -73.59375 L 44.15625 -73.59375 L 44.15625 -65.390625 Z M 26.8125 0 L 26.8125 -8.203125 L 34.90625 -8.203125 L 34.90625 0 Z M 26.8125 -9.359375 L 26.8125 -17.5625 L 34.90625 -17.5625 L 34.90625 -9.359375 Z M 26.8125 -28.0625 L 26.8125 -36.265625 L 34.90625 -36.265625 L 34.90625 -28.0625 Z M 26.8125 -37.3125 L 26.8125 -45.515625 L 34.90625 -45.515625 L 34.90625 -37.3125 Z M 26.8125 -56.03125 L 26.8125 -64.234375 L 34.90625 -64.234375 L 34.90625 -56.03125 Z M 26.8125 -65.390625 L 26.8125 -73.59375 L 34.90625 -73.59375 L 34.90625 -65.390625 Z M 17.65625 0 L 17.65625 -8.203125 L 25.75 -8.203125 L 25.75 0 Z M 17.65625 -9.359375 L 17.65625 -17.5625 L 25.75 -17.5625 L 25.75 -9.359375 Z M 17.65625 -18.71875 L 17.65625 -26.90625 L 25.75 -26.90625 L 25.75 -18.71875 Z M 17.65625 -28.0625 L 17.65625 -36.265625 L 25.75 -36.265625 L 25.75 -28.0625 Z M 17.65625 -37.3125 L 17.65625 -45.515625 L 25.75 -45.515625 L 25.75 -37.3125 Z M 17.65625 -46.671875 L 17.65625 -54.875 L 25.75 -54.875 L 25.75 -46.671875 Z M 17.65625 -56.03125 L 17.65625 -64.234375 L 25.75 -64.234375 L 25.75 -56.03125 Z M 17.65625 -65.390625 L 17.65625 -73.59375 L 25.75 -73.59375 L 25.75 -65.390625 Z M 8.40625 -9.359375 L 8.40625 -17.5625 L 16.5 -17.5625 L 16.5 -9.359375 Z M 8.40625 -18.71875 L 8.40625 -26.90625 L 16.5 -26.90625 L 16.5 -18.71875 Z M 8.40625 -28.0625 L 8.40625 -36.265625 L 16.5 -36.265625 L 16.5 -28.0625 Z M 8.40625 -37.3125 L 8.40625 -45.515625 L 16.5 -45.515625 L 16.5 -37.3125 Z M 8.40625 -46.671875 L 8.40625 -54.875 L 16.5 -54.875 L 16.5 -46.671875 Z M 8.40625 -56.03125 L 8.40625 -64.234375 L 16.5 -64.234375 L 16.5 -56.03125 Z M 8.40625 -56.03125 "/></g></g></g><g fill="#64ecff" fill-opacity="1"><g transform="translate(316.682098, 71.386475)"><g><path d="M 44.890625 0 L 44.890625 -8.203125 L 52.984375 -8.203125 L 52.984375 0 Z M 44.890625 -9.359375 L 44.890625 -17.5625 L 52.984375 -17.5625 L 52.984375 -9.359375 Z M 53.828125 0 L 53.828125 -8.203125 L 61.921875 -8.203125 L 61.921875 0 Z M 53.828125 -9.359375 L 53.828125 -17.5625 L 61.921875 -17.5625 L 61.921875 -9.359375 Z M 35.640625 0 L 35.640625 -8.203125 L 43.734375 -8.203125 L 43.734375 0 Z M 35.640625 -9.359375 L 35.640625 -17.5625 L 43.734375 -17.5625 L 43.734375 -9.359375 Z M 26.390625 0 L 26.390625 -8.203125 L 34.484375 -8.203125 L 34.484375 0 Z M 26.390625 -9.359375 L 26.390625 -17.5625 L 34.484375 -17.5625 L 34.484375 -9.359375 Z M 17.234375 0 L 17.234375 -8.203125 L 25.328125 -8.203125 L 25.328125 0 Z M 17.234375 -9.359375 L 17.234375 -17.5625 L 25.328125 -17.5625 L 25.328125 -9.359375 Z M 17.234375 -18.71875 L 17.234375 -26.90625 L 25.328125 -26.90625 L 25.328125 -18.71875 Z M 17.234375 -28.0625 L 17.234375 -36.265625 L 25.328125 -36.265625 L 25.328125 -28.0625 Z M 17.234375 -37.3125 L 17.234375 -45.515625 L 25.328125 -45.515625 L 25.328125 -37.3125 Z M 17.234375 -46.671875 L 17.234375 -54.875 L 25.328125 -54.875 L 25.328125 -46.671875 Z M 17.234375 -56.03125 L 17.234375 -64.234375 L 25.328125 -64.234375 L 25.328125 -56.03125 Z M 17.234375 -65.390625 L 17.234375 -73.59375 L 25.328125 -73.59375 L 25.328125 -65.390625 Z M 7.984375 0 L 7.984375 -8.203125 L 16.078125 -8.203125 L 16.078125 0 Z M 7.984375 -9.359375 L 7.984375 -17.5625 L 16.078125 -17.5625 L 16.078125 -9.359375 Z M 7.984375 -18.71875 L 7.984375 -26.90625 L 16.078125 -26.90625 L 16.078125 -18.71875 Z M 7.984375 -28.0625 L 7.984375 -36.265625 L 16.078125 -36.265625 L 16.078125 -28.0625 Z M 7.984375 -37.3125 L 7.984375 -45.515625 L 16.078125 -45.515625 L 16.078125 -37.3125 Z M 7.984375 -46.671875 L 7.984375 -54.875 L 16.078125 -54.875 L 16.078125 -46.671875 Z M 7.984375 -56.03125 L 7.984375 -64.234375 L 16.078125 -64.234375 L 16.078125 -56.03125 Z M 7.984375 -65.390625 L 7.984375 -73.59375 L 16.078125 -73.59375 L 16.078125 -65.390625 Z M 7.984375 -65.390625 "/></g></g></g><g fill="#000000" fill-opacity="1"><g transform="translate(385.262434, 71.386475)"><g/></g></g><g fill="#6494ff" fill-opacity="1"><g transform="translate(443.165592, 71.386475)"><g><path d="M 54.03125 -0.53125 L 54.03125 -8.71875 L 62.125 -8.71875 L 62.125 -0.53125 Z M 54.03125 -9.875 L 54.03125 -18.078125 L 62.125 -18.078125 L 62.125 -9.875 Z M 54.03125 -19.234375 L 54.03125 -27.4375 L 62.125 -27.4375 L 62.125 -19.234375 Z M 54.03125 -28.59375 L 54.03125 -36.796875 L 62.125 -36.796875 L 62.125 -28.59375 Z M 54.03125 -37.953125 L 54.03125 -46.15625 L 62.125 -46.15625 L 62.125 -37.953125 Z M 54.03125 -47.3125 L 54.03125 -55.5 L 62.125 -55.5 L 62.125 -47.3125 Z M 54.03125 -56.5625 L 54.03125 -64.859375 L 62.125 -64.859375 L 62.125 -56.5625 Z M 44.890625 -0.53125 L 44.890625 -8.71875 L 52.984375 -8.71875 L 52.984375 -0.53125 Z M 44.890625 -9.875 L 44.890625 -18.078125 L 52.984375 -18.078125 L 52.984375 -9.875 Z M 44.890625 -19.234375 L 44.890625 -27.4375 L 52.984375 -27.4375 L 52.984375 -19.234375 Z M 44.890625 -28.59375 L 44.890625 -36.796875 L 52.984375 -36.796875 L 52.984375 -28.59375 Z M 44.890625 -37.953125 L 44.890625 -46.15625 L 52.984375 -46.15625 L 52.984375 -37.953125 Z M 44.890625 -47.3125 L 44.890625 -55.5 L 52.984375 -55.5 L 52.984375 -47.3125 Z M 44.890625 -56.5625 L 44.890625 -64.859375 L 52.984375 -64.859375 L 52.984375 -56.5625 Z M 44.890625 -65.90625 L 44.890625 -74.109375 L 52.984375 -74.109375 L 52.984375 -65.90625 Z M 35.640625 -28.59375 L 35.640625 -36.796875 L 43.734375 -36.796875 L 43.734375 -28.59375 Z M 35.640625 -56.5625 L 35.640625 -64.859375 L 43.734375 -64.859375 L 43.734375 -56.5625 Z M 35.640625 -65.90625 L 35.640625 -74.109375 L 43.734375 -74.109375 L 43.734375 -65.90625 Z M 26.390625 -28.59375 L 26.390625 -36.796875 L 34.484375 -36.796875 L 34.484375 -28.59375 Z M 26.390625 -56.5625 L 26.390625 -64.859375 L 34.484375 -64.859375 L 34.484375 -56.5625 Z M 26.390625 -65.90625 L 26.390625 -74.109375 L 34.484375 -74.109375 L 34.484375 -65.90625 Z M 17.234375 -0.53125 L 17.234375 -8.71875 L 25.328125 -8.71875 L 25.328125 -0.53125 Z M 17.234375 -9.875 L 17.234375 -18.078125 L 25.328125 -18.078125 L 25.328125 -9.875 Z M 17.234375 -19.234375 L 17.234375 -27.4375 L 25.328125 -27.4375 L 25.328125 -19.234375 Z M 17.234375 -28.59375 L 17.234375 -36.796875 L 25.328125 -36.796875 L 25.328125 -28.59375 Z M 17.234375 -37.953125 L 17.234375 -46.15625 L 25.328125 -46.15625 L 25.328125 -37.953125 Z M 17.234375 -47.3125 L 17.234375 -55.5 L 25.328125 -55.5 L 25.328125 -47.3125 Z M 17.234375 -56.5625 L 17.234375 -64.859375 L 25.328125 -64.859375 L 25.328125 -56.5625 Z M 17.234375 -65.90625 L 17.234375 -74.109375 L 25.328125 -74.109375 L 25.328125 -65.90625 Z M 7.984375 -0.53125 L 7.984375 -8.71875 L 16.078125 -8.71875 L 16.078125 -0.53125 Z M 7.984375 -9.875 L 7.984375 -18.078125 L 16.078125 -18.078125 L 16.078125 -9.875 Z M 7.984375 -19.234375 L 7.984375 -27.4375 L 16.078125 -27.4375 L 16.078125 -19.234375 Z M 7.984375 -28.59375 L 7.984375 -36.796875 L 16.078125 -36.796875 L 16.078125 -28.59375 Z M 7.984375 -37.953125 L 7.984375 -46.15625 L 16.078125 -46.15625 L 16.078125 -37.953125 Z M 7.984375 -47.3125 L 7.984375 -55.5 L 16.078125 -55.5 L 16.078125 -47.3125 Z M 7.984375 -56.5625 L 7.984375 -64.859375 L 16.078125 -64.859375 L 16.078125 -56.5625 Z M 7.984375 -56.5625 "/></g></g></g><g fill="#ad64ff" fill-opacity="1"><g transform="translate(511.745928, 71.386475)"><g><path d="M 62.765625 0 L 62.765625 -8.203125 L 70.859375 -8.203125 L 70.859375 0 Z M 53.515625 0 L 53.515625 -8.203125 L 61.609375 -8.203125 L 61.609375 0 Z M 53.515625 -9.359375 L 53.515625 -17.5625 L 61.609375 -17.5625 L 61.609375 -9.359375 Z M 53.515625 -28.0625 L 53.515625 -36.265625 L 61.609375 -36.265625 L 61.609375 -28.0625 Z M 53.515625 -37.3125 L 53.515625 -45.515625 L 61.609375 -45.515625 L 61.609375 -37.3125 Z M 53.515625 -46.671875 L 53.515625 -54.875 L 61.609375 -54.875 L 61.609375 -46.671875 Z M 53.515625 -56.03125 L 53.515625 -64.234375 L 61.609375 -64.234375 L 61.609375 -56.03125 Z M 44.359375 -9.359375 L 44.359375 -17.5625 L 52.453125 -17.5625 L 52.453125 -9.359375 Z M 44.359375 -18.71875 L 44.359375 -26.90625 L 52.453125 -26.90625 L 52.453125 -18.71875 Z M 44.359375 -28.0625 L 44.359375 -36.265625 L 52.453125 -36.265625 L 52.453125 -28.0625 Z M 44.359375 -37.3125 L 44.359375 -45.515625 L 52.453125 -45.515625 L 52.453125 -37.3125 Z M 44.359375 -46.671875 L 44.359375 -54.875 L 52.453125 -54.875 L 52.453125 -46.671875 Z M 44.359375 -56.03125 L 44.359375 -64.234375 L 52.453125 -64.234375 L 52.453125 -56.03125 Z M 44.359375 -65.390625 L 44.359375 -73.59375 L 52.453125 -73.59375 L 52.453125 -65.390625 Z M 35.109375 -18.71875 L 35.109375 -26.90625 L 43.203125 -26.90625 L 43.203125 -18.71875 Z M 35.109375 -28.0625 L 35.109375 -36.265625 L 43.203125 -36.265625 L 43.203125 -28.0625 Z M 35.109375 -37.3125 L 35.109375 -45.515625 L 43.203125 -45.515625 L 43.203125 -37.3125 Z M 35.109375 -56.03125 L 35.109375 -64.234375 L 43.203125 -64.234375 L 43.203125 -56.03125 Z M 35.109375 -65.390625 L 35.109375 -73.59375 L 43.203125 -73.59375 L 43.203125 -65.390625 Z M 25.859375 -28.0625 L 25.859375 -36.265625 L 33.953125 -36.265625 L 33.953125 -28.0625 Z M 25.859375 -37.3125 L 25.859375 -45.515625 L 33.953125 -45.515625 L 33.953125 -37.3125 Z M 25.859375 -56.03125 L 25.859375 -64.234375 L 33.953125 -64.234375 L 33.953125 -56.03125 Z M 25.859375 -65.390625 L 25.859375 -73.59375 L 33.953125 -73.59375 L 33.953125 -65.390625 Z M 16.71875 0 L 16.71875 -8.203125 L 24.8125 -8.203125 L 24.8125 0 Z M 16.71875 -9.359375 L 16.71875 -17.5625 L 24.8125 -17.5625 L 24.8125 -9.359375 Z M 16.71875 -18.71875 L 16.71875 -26.90625 L 24.8125 -26.90625 L 24.8125 -18.71875 Z M 16.71875 -28.0625 L 16.71875 -36.265625 L 24.8125 -36.265625 L 24.8125 -28.0625 Z M 16.71875 -37.3125 L 16.71875 -45.515625 L 24.8125 -45.515625 L 24.8125 -37.3125 Z M 16.71875 -46.671875 L 16.71875 -54.875 L 24.8125 -54.875 L 24.8125 -46.671875 Z M 16.71875 -56.03125 L 16.71875 -64.234375 L 24.8125 -64.234375 L 24.8125 -56.03125 Z M 16.71875 -65.390625 L 16.71875 -73.59375 L 24.8125 -73.59375 L 24.8125 -65.390625 Z M 7.46875 0 L 7.46875 -8.203125 L 15.5625 -8.203125 L 15.5625 0 Z M 7.46875 -9.359375 L 7.46875 -17.5625 L 15.5625 -17.5625 L 15.5625 -9.359375 Z M 7.46875 -18.71875 L 7.46875 -26.90625 L 15.5625 -26.90625 L 15.5625 -18.71875 Z M 7.46875 -28.0625 L 7.46875 -36.265625 L 15.5625 -36.265625 L 15.5625 -28.0625 Z M 7.46875 -37.3125 L 7.46875 -45.515625 L 15.5625 -45.515625 L 15.5625 -37.3125 Z M 7.46875 -46.671875 L 7.46875 -54.875 L 15.5625 -54.875 L 15.5625 -46.671875 Z M 7.46875 -56.03125 L 7.46875 -64.234375 L 15.5625 -64.234375 L 15.5625 -56.03125 Z M 7.46875 -65.390625 L 7.46875 -73.59375 L 15.5625 -73.59375 L 15.5625 -65.390625 Z M 7.46875 -65.390625 "/></g></g></g><g fill="#fc64ff" fill-opacity="1"><g transform="translate(587.820822, 71.386475)"><g><path d="M 54.453125 -56.03125 L 54.453125 -64.234375 L 62.546875 -64.234375 L 62.546875 -56.03125 Z M 54.453125 -65.390625 L 54.453125 -73.59375 L 62.546875 -73.59375 L 62.546875 -65.390625 Z M 45.3125 -56.03125 L 45.3125 -64.234375 L 53.40625 -64.234375 L 53.40625 -56.03125 Z M 45.3125 -65.390625 L 45.3125 -73.59375 L 53.40625 -73.59375 L 53.40625 -65.390625 Z M 36.0625 0 L 36.0625 -8.203125 L 44.15625 -8.203125 L 44.15625 0 Z M 36.0625 -9.359375 L 36.0625 -17.5625 L 44.15625 -17.5625 L 44.15625 -9.359375 Z M 36.0625 -18.71875 L 36.0625 -26.90625 L 44.15625 -26.90625 L 44.15625 -18.71875 Z M 36.0625 -28.0625 L 36.0625 -36.265625 L 44.15625 -36.265625 L 44.15625 -28.0625 Z M 36.0625 -37.3125 L 36.0625 -45.515625 L 44.15625 -45.515625 L 44.15625 -37.3125 Z M 36.0625 -46.671875 L 36.0625 -54.875 L 44.15625 -54.875 L 44.15625 -46.671875 Z M 36.0625 -56.03125 L 36.0625 -64.234375 L 44.15625 -64.234375 L 44.15625 -56.03125 Z M 36.0625 -65.390625 L 36.0625 -73.59375 L 44.15625 -73.59375 L 44.15625 -65.390625 Z M 26.8125 0 L 26.8125 -8.203125 L 34.90625 -8.203125 L 34.90625 0 Z M 26.8125 -9.359375 L 26.8125 -17.5625 L 34.90625 -17.5625 L 34.90625 -9.359375 Z M 26.8125 -18.71875 L 26.8125 -26.90625 L 34.90625 -26.90625 L 34.90625 -18.71875 Z M 26.8125 -28.0625 L 26.8125 -36.265625 L 34.90625 -36.265625 L 34.90625 -28.0625 Z M 26.8125 -37.3125 L 26.8125 -45.515625 L 34.90625 -45.515625 L 34.90625 -37.3125 Z M 26.8125 -46.671875 L 26.8125 -54.875 L 34.90625 -54.875 L 34.90625 -46.671875 Z M 26.8125 -56.03125 L 26.8125 -64.234375 L 34.90625 -64.234375 L 34.90625 -56.03125 Z M 26.8125 -65.390625 L 26.8125 -73.59375 L 34.90625 -73.59375 L 34.90625 -65.390625 Z M 17.65625 -56.03125 L 17.65625 -64.234375 L 25.75 -64.234375 L 25.75 -56.03125 Z M 17.65625 -65.390625 L 17.65625 -73.59375 L 25.75 -73.59375 L 25.75 -65.390625 Z M 8.40625 -56.03125 L 8.40625 -64.234375 L 16.5 -64.234375 L 16.5 -56.03125 Z M 8.40625 -65.390625 L 8.40625 -73.59375 L 16.5 -73.59375 L 16.5 -65.390625 Z M 8.40625 -65.390625 "/></g></g></g></svg>